<svg xmlns="http://www.w3.org/2000/svg" width="980" height="300" viewBox="0 0 980 300"><rect width="100%" height="100%" fill="#DDDDDD"/><path fill="#999999" d="M214.89 131.215q0 7.87 4.06 11.99 4.06 4.13 11.54 4.13 3.9 0 6.95-1.24 3.06-1.23 5.14-3.37 2.08-2.15 3.15-5.07 1.07-2.93 1.07-6.31 0-3.83-1.17-6.86-1.17-3.02-3.31-5.1-2.14-2.08-5.1-3.19-2.96-1.1-6.47-1.1-3.64 0-6.57 1.2-2.92 1.2-5 3.35-2.08 2.15-3.19 5.1-1.1 2.96-1.1 6.47Zm-7.87 65.78 29.19-36.47q1.1-1.36 2.08-2.66.97-1.3 1.89-2.6-3.25 2.08-7.16 3.15-3.9 1.07-8.19 1.07-4.87 0-9.55-1.69-4.68-1.68-8.32-5.1-3.64-3.41-5.88-8.45-2.25-5.04-2.25-11.8 0-6.3 2.35-11.83 2.33-5.52 6.56-9.68 4.22-4.16 10.14-6.57 5.92-2.4 13.06-2.4 7.22 0 12.97 2.27 5.75 2.28 9.82 6.37 4.06 4.1 6.24 9.82 2.17 5.72 2.17 12.54 0 4.36-.74 8.26-.75 3.9-2.12 7.51-1.36 3.6-3.31 7.05-1.95 3.44-4.35 6.83l-21.52 30.67q-1.11 1.56-3.31 2.64-2.22 1.07-5.01 1.07h-14.76Zm99.52-11.51q3.96 0 6.95-1.13 3-1.14 5.04-3.15 2.05-2.02 3.09-4.82 1.04-2.79 1.04-6.04 0-7.73-4.29-11.7-4.29-3.97-11.83-3.97t-11.83 3.97q-4.29 3.97-4.29 11.7 0 3.25 1.04 6.04 1.04 2.8 3.09 4.82 2.04 2.01 5.04 3.15 2.98 1.13 6.95 1.13Zm0-71.43q-3.58 0-6.17 1.1-2.6 1.11-4.33 2.96-1.72 1.85-2.53 4.26-.82 2.4-.82 5.07 0 2.8.69 5.43.68 2.63 2.3 4.68 1.63 2.04 4.29 3.28 2.67 1.23 6.57 1.23 3.9 0 6.57-1.23 2.66-1.24 4.29-3.28 1.62-2.05 2.3-4.68.68-2.63.68-5.43 0-2.67-.84-5.07-.85-2.41-2.54-4.26-1.69-1.85-4.29-2.96-2.59-1.1-6.17-1.1Zm15.86 33.93q8.58 2.79 12.67 8.55 4.1 5.75 4.1 14.07 0 6.24-2.37 11.31t-6.67 8.64q-4.29 3.58-10.3 5.53-6.01 1.95-13.29 1.95-7.28 0-13.29-1.95-6.01-1.95-10.31-5.53-4.29-3.57-6.66-8.64t-2.37-11.31q0-8.32 4.09-14.07 4.1-5.76 12.68-8.55-6.82-2.86-10.24-8.13-3.41-5.26-3.41-12.67 0-5.33 2.18-9.95 2.17-4.61 6.07-8.02 3.9-3.42 9.33-5.33 5.43-1.92 11.93-1.92t11.93 1.92q5.43 1.91 9.33 5.33 3.89 3.41 6.07 8.02 2.18 4.62 2.18 9.95 0 7.41-3.41 12.67-3.41 5.27-10.24 8.13Zm93.99 2.01q0 12.29-2.63 21.36t-7.28 14.98q-4.65 5.91-10.99 8.81-6.34 2.89-13.68 2.89-7.35 0-13.62-2.89-6.27-2.9-10.89-8.81-4.61-5.91-7.21-14.98-2.6-9.07-2.6-21.36 0-12.34 2.6-21.38t7.21-14.95q4.62-5.92 10.89-8.81 6.27-2.89 13.62-2.89 7.34 0 13.68 2.89t10.99 8.81q4.65 5.91 7.28 14.95t2.63 21.38Zm-16.57 0q0-10.2-1.5-16.9-1.49-6.69-4-10.66-2.5-3.96-5.75-5.55-3.25-1.59-6.76-1.59-3.44 0-6.66 1.59t-5.69 5.55q-2.47 3.97-3.93 10.66-1.46 6.7-1.46 16.9 0 10.21 1.46 16.9 1.46 6.7 3.93 10.66 2.47 3.97 5.69 5.56 3.22 1.59 6.66 1.59 3.51 0 6.76-1.59t5.75-5.56q2.51-3.96 4-10.66 1.5-6.69 1.5-16.9Zm119.79 25.48-8.51 8.39-22.04-22.03-22.23 22.16-8.51-8.39 22.23-22.29-21.19-21.19 8.45-8.45 21.19 21.19 21.06-21.06 8.58 8.45-21.13 21.12 22.1 22.1Zm54.08-44.78-8.45-1.5q.98-6.76 3.77-11.86 2.8-5.1 6.99-8.51 4.19-3.42 9.62-5.14 5.43-1.72 11.67-1.72 6.5 0 11.73 1.85t8.94 5.14q3.7 3.28 5.68 7.7 1.99 4.42 1.99 9.56 0 4.48-1.01 7.89-1.01 3.41-2.89 5.95-1.89 2.53-4.68 4.29-2.8 1.75-6.31 2.92 8.45 2.67 12.61 8.13 4.16 5.46 4.16 13.71 0 7.02-2.6 12.42-2.6 5.39-7.02 9.07-4.42 3.67-10.24 5.56-5.81 1.88-12.31 1.88-7.09 0-12.35-1.62-5.27-1.63-9.17-4.82-3.9-3.18-6.63-7.8-2.73-4.61-4.68-10.66l7.09-2.92q2.79-1.17 5.23-.62 2.44.55 3.54 2.63 1.17 2.28 2.57 4.49 1.4 2.21 3.35 3.93 1.95 1.72 4.58 2.8 2.63 1.07 6.27 1.07 4.1 0 7.15-1.33 3.06-1.34 5.1-3.48 2.05-2.15 3.06-4.78 1.01-2.63 1.01-5.3 0-3.38-.72-6.14-.71-2.76-2.99-4.71-2.27-1.95-6.53-3.05-4.26-1.11-11.41-1.11v-11.44q5.92-.07 9.82-1.11 3.9-1.04 6.2-2.89 2.31-1.85 3.22-4.45.91-2.6.91-5.72 0-6.63-3.7-10.07-3.71-3.45-9.88-3.45-2.86 0-5.27.81-2.4.81-4.32 2.28-1.92 1.46-3.22 3.41-1.3 1.95-1.95 4.29-1.1 2.99-2.89 3.97-1.79.97-5.04.45Zm132.08 19.3q0 12.29-2.63 21.36t-7.28 14.98q-4.65 5.91-10.99 8.81-6.33 2.89-13.68 2.89-7.34 0-13.62-2.89-6.27-2.9-10.88-8.81-4.62-5.91-7.22-14.98-2.6-9.07-2.6-21.36 0-12.34 2.6-21.38t7.22-14.95q4.61-5.92 10.88-8.81 6.28-2.89 13.62-2.89 7.35 0 13.68 2.89 6.34 2.89 10.99 8.81 4.65 5.91 7.28 14.95t2.63 21.38Zm-16.57 0q0-10.2-1.5-16.9-1.49-6.69-4-10.66-2.5-3.96-5.75-5.55-3.25-1.59-6.76-1.59-3.44 0-6.66 1.59t-5.69 5.55q-2.47 3.97-3.93 10.66-1.46 6.7-1.46 16.9 0 10.21 1.46 16.9 1.46 6.7 3.93 10.66 2.47 3.97 5.69 5.56 3.22 1.59 6.66 1.59 3.51 0 6.76-1.59t5.75-5.56q2.51-3.96 4-10.66 1.5-6.69 1.5-16.9Zm91.97 0q0 12.29-2.63 21.36t-7.28 14.98q-4.65 5.91-10.99 8.81-6.33 2.89-13.68 2.89-7.34 0-13.62-2.89-6.27-2.9-10.88-8.81-4.62-5.91-7.22-14.98-2.6-9.07-2.6-21.36 0-12.34 2.6-21.38t7.22-14.95q4.61-5.92 10.88-8.81 6.28-2.89 13.62-2.89 7.35 0 13.68 2.89 6.34 2.89 10.99 8.81 4.65 5.91 7.28 14.95t2.63 21.38Zm-16.57 0q0-10.2-1.5-16.9-1.49-6.69-4-10.66-2.5-3.96-5.75-5.55-3.25-1.59-6.76-1.59-3.44 0-6.66 1.59t-5.69 5.55q-2.47 3.97-3.93 10.66-1.46 6.7-1.46 16.9 0 10.21 1.46 16.9 1.46 6.7 3.93 10.66 2.47 3.97 5.69 5.56 3.22 1.59 6.66 1.59 3.51 0 6.76-1.59t5.75-5.56q2.51-3.96 4-10.66 1.5-6.69 1.5-16.9Z"/></svg>