<svg width="62" height="62" viewBox="0 0 62 62" fill="none" xmlns="http://www.w3.org/2000/svg">
<g clip-path="url(#clip0_6_40)">
<g clip-path="url(#clip1_6_40)">
<g clip-path="url(#clip2_6_40)">
<path d="M13.237 19.3409C13.3354 47.5091 18.824 56.4123 19.0603 56.7812C19.2076 57.0121 19.4571 57.1376 19.7121 57.1376C19.7237 57.1376 19.7346 57.1338 19.7462 57.133C19.7594 57.1338 19.7726 57.1384 19.785 57.1384C19.9151 57.1385 20.0432 57.1058 20.1573 57.0434C20.2715 56.981 20.3681 56.8908 20.4383 56.7812C20.6739 56.413 26.1632 47.5121 26.2616 19.3432C30.008 19.2123 33.015 16.1231 33.015 12.3458C33.015 8.4847 29.8739 5.34363 26.0129 5.34363C23.2965 5.34363 20.9413 6.90215 19.7811 9.16825C18.6209 6.90138 16.2657 5.34363 13.5493 5.34363C9.68826 5.34363 6.54718 8.4847 6.54718 12.3458C6.54718 16.1014 9.52085 19.1766 13.237 19.3409ZM18.9379 52.6031C17.9102 49.6504 16.5579 44.5509 15.6798 36.5591C16.4951 36.9078 17.8544 37.4999 18.9379 37.9742V52.6031ZM26.0129 6.89285C29.0191 6.89285 31.465 9.33875 31.465 12.345C31.465 15.3512 29.0191 17.7971 26.0129 17.7971H25.4882C25.2826 17.7971 25.0855 17.8788 24.9402 18.0241C24.7948 18.1694 24.7132 18.3666 24.7132 18.5721C24.7132 23.0245 24.5752 26.9979 24.3427 30.5373H20.5607V12.345C20.5624 10.8995 21.1373 9.51367 22.1594 8.49156C23.1815 7.46944 24.5674 6.89449 26.0129 6.89285ZM13.5493 6.89285C14.9948 6.89449 16.3806 7.46944 17.4027 8.49156C18.4248 9.51367 18.9998 10.8995 19.0014 12.345C19.0014 12.3613 19.01 12.3752 19.0107 12.3915V31.2395C19.0107 31.2527 19.0177 31.2627 19.0177 31.2759C19.0169 31.2883 19.0107 31.2992 19.0107 31.3123C19.0107 31.5179 19.0924 31.715 19.2377 31.8603C19.3831 32.0057 19.5802 32.0873 19.7857 32.0873H24.2311C23.4073 42.9094 21.7 49.3962 20.4871 52.8132V37.4674C20.4871 37.1597 20.305 36.8815 20.0237 36.7575C19.0549 36.332 15.9053 34.9517 15.5 34.8076C15.066 30.2831 14.7847 24.9147 14.7847 18.5721C14.7847 18.3666 14.703 18.1694 14.5577 18.0241C14.4123 17.8788 14.2152 17.7971 14.0097 17.7971H13.5485C10.5423 17.7971 8.09641 15.3512 8.09641 12.345C8.09641 9.33875 10.5431 6.89285 13.5493 6.89285Z" fill="#E12D23"/>
<path d="M13.5493 15.8092C14.4677 15.808 15.348 15.4426 15.9973 14.7932C16.6466 14.1437 17.0118 13.2633 17.0128 12.345C17.0118 11.4267 16.6466 10.5464 15.9972 9.89706C15.3479 9.24776 14.4676 8.88253 13.5493 8.8815C12.631 8.88253 11.7506 9.24773 11.1011 9.89701C10.4517 10.5463 10.0863 11.4266 10.0851 12.345C10.0863 13.2634 10.4517 14.1438 11.1011 14.7932C11.7505 15.4426 12.6309 15.808 13.5493 15.8092ZM13.5493 10.4315C14.0568 10.4317 14.5433 10.6334 14.9021 10.9922C15.2609 11.351 15.4626 11.8376 15.4628 12.345C15.4622 12.8523 15.2604 13.3388 14.9017 13.6976C14.543 14.0564 14.0567 14.2584 13.5493 14.2592C13.0418 14.2586 12.5553 14.0567 12.1964 13.6979C11.8376 13.339 11.6357 12.8525 11.6351 12.345C11.6361 11.8377 11.8381 11.3515 12.1969 10.9928C12.5557 10.6342 13.042 10.4323 13.5493 10.4315Z" fill="#E12D23"/>
<path d="M26.0129 15.8092C26.9312 15.808 27.8116 15.4426 28.4609 14.7932C29.1101 14.1437 29.4753 13.2633 29.4764 12.345C29.4753 11.4267 29.1101 10.5464 28.4608 9.89706C27.8115 9.24776 26.9311 8.88253 26.0129 8.8815C25.0946 8.88253 24.2141 9.24773 23.5647 9.89701C22.9153 10.5463 22.5499 11.4266 22.5486 12.345C22.5499 13.2634 22.9153 14.1438 23.5647 14.7932C24.2141 15.4426 25.0945 15.808 26.0129 15.8092ZM26.0129 10.4315C26.5203 10.4317 27.0069 10.6334 27.3657 10.9922C27.7245 11.351 27.9262 11.8376 27.9264 12.345C27.9258 12.8523 27.724 13.3388 27.3653 13.6976C27.0066 14.0564 26.5203 14.2584 26.0129 14.2592C25.5054 14.2586 25.0189 14.0567 24.66 13.6979C24.3011 13.339 24.0993 12.8525 24.0986 12.345C24.0997 11.8377 24.3017 11.3515 24.6605 10.9928C25.0193 10.6342 25.5056 10.4323 26.0129 10.4315Z" fill="#E12D23"/>
<path d="M5.3971 62H56.6029C58.0339 61.9988 59.406 61.4297 60.4179 60.4179C61.4297 59.406 61.9988 58.0339 62 56.6029V5.3971C61.9988 3.96608 61.4297 2.59402 60.4179 1.58213C59.406 0.570248 58.0339 0.00123134 56.6029 0H5.3971C3.96608 0.00123134 2.59402 0.570248 1.58213 1.58213C0.570248 2.59402 0.00123134 3.96608 0 5.3971V56.6029C0.00123134 58.0339 0.570248 59.406 1.58213 60.4179C2.59402 61.4297 3.96608 61.9988 5.3971 62ZM1.55 5.3971C1.55123 4.37716 1.95694 3.39935 2.67815 2.67815C3.39935 1.95694 4.37716 1.55123 5.3971 1.55H56.6029C57.6228 1.55123 58.6006 1.95694 59.3218 2.67815C60.0431 3.39935 60.4488 4.37716 60.45 5.3971V56.6029C60.4488 57.6228 60.0431 58.6006 59.3218 59.3218C58.6006 60.0431 57.6228 60.4488 56.6029 60.45H5.3971C4.37716 60.4488 3.39935 60.0431 2.67815 59.3218C1.95694 58.6006 1.55123 57.6228 1.55 56.6029V5.3971Z" fill="#E12D23"/>
<path d="M41.6888 26.9708L42.3034 27.5854L37.3317 32.5578C31.3046 38.5849 29.6709 46.7581 33.69 50.7772C33.762 50.8492 33.8474 50.9063 33.9414 50.9452C34.0354 50.9841 34.1362 51.0042 34.2379 51.0042C34.3397 51.0042 34.4405 50.9841 34.5345 50.9452C34.6285 50.9063 34.7139 50.8492 34.7859 50.7772C34.8578 50.7053 34.9149 50.6199 34.9538 50.5258C34.9928 50.4318 35.0128 50.3311 35.0128 50.2293C35.0128 50.1275 34.9928 50.0268 34.9538 49.9328C34.9149 49.8388 34.8578 49.7533 34.7859 49.6814C31.3712 46.2667 33.0049 39.0763 38.4276 33.6536L42.6831 29.3989V56.3634C42.6831 56.569 42.7648 56.7661 42.9101 56.9114C43.0554 57.0568 43.2526 57.1384 43.4581 57.1384C43.6636 57.1384 43.8608 57.0568 44.0061 56.9114C44.1515 56.7661 44.2331 56.569 44.2331 56.3634V29.5143L48.3615 33.6428C51.0624 36.3436 52.9309 39.5382 53.6222 42.6382C54.2856 45.6119 53.7772 48.1236 52.19 49.7108C52.1181 49.7828 52.061 49.8682 52.0221 49.9622C51.9831 50.0562 51.9631 50.157 51.9631 50.2588C51.9631 50.3605 51.9831 50.4613 52.0221 50.5553C52.061 50.6493 52.1181 50.7347 52.19 50.8067C52.262 50.8786 52.3474 50.9357 52.4414 50.9747C52.5354 51.0136 52.6362 51.0336 52.738 51.0336C52.8397 51.0336 52.9405 51.0136 53.0345 50.9747C53.1285 50.9357 53.2139 50.8786 53.2859 50.8067C55.2614 48.8312 55.9178 45.8103 55.135 42.3003C54.3802 38.9166 52.3644 35.4532 49.4574 32.5469L44.4966 27.5861L45.0283 27.0545C47.9771 24.1056 49.9743 20.5809 50.6509 17.1298C50.8517 16.0998 50.8228 15.0381 50.5664 14.0204C50.3101 13.0027 49.8324 12.0541 49.1675 11.2422C48.4846 10.4006 47.6225 9.72199 46.6441 9.25583C46.6705 9.01093 46.6875 8.76215 46.6875 8.50485C46.6875 6.1907 45.5103 4.86313 43.4581 4.86313C41.4059 4.86313 40.2287 6.1907 40.2287 8.50485C40.2287 8.7699 40.2465 9.0272 40.2744 9.27908C39.1755 9.80024 38.2194 10.5802 37.4883 11.5522C36.0251 13.4943 35.5895 15.9526 36.2948 18.2954C37.2046 21.321 39.1204 24.4024 41.6888 26.9708ZM43.4581 11.639C42.9544 11.639 42.4165 11.1197 42.0887 10.2703C42.5845 10.1514 43.0932 10.0941 43.603 10.0998C44.0215 10.1052 44.4338 10.1572 44.8337 10.2509C44.5059 11.1104 43.965 11.639 43.4581 11.639ZM47.9647 12.2187C48.4858 12.8546 48.8603 13.5976 49.0616 14.3947C49.263 15.1919 49.2861 16.0236 49.1296 16.8307C48.5351 19.8617 46.796 22.971 44.2331 25.6362V13.0526C45.1182 12.7472 45.8498 11.9296 46.2776 10.8159C46.925 11.1705 47.4979 11.6468 47.9647 12.2187ZM41.7787 8.50408C41.7787 6.66113 42.6273 6.41235 43.4581 6.41235C44.2889 6.41235 45.1375 6.66113 45.1375 8.50408C45.1375 8.58235 45.1275 8.65365 45.1244 8.73038C44.6317 8.61772 44.1285 8.5572 43.6232 8.5498C43.0078 8.54308 42.3938 8.60969 41.7942 8.7482C41.7895 8.66605 41.7787 8.58933 41.7787 8.50408ZM38.726 12.4837C39.2401 11.8023 39.8945 11.2391 40.6449 10.8322C41.0734 11.9381 41.8019 12.748 42.6823 13.0526V25.7664C40.3449 23.3973 38.6035 20.5925 37.7781 17.8483C37.2178 15.9828 37.5635 14.0275 38.726 12.4837Z" fill="#E12D23"/>
</g>
</g>
</g>
<defs>
<clipPath id="clip0_6_40">
<rect width="62" height="62" fill="white"/>
</clipPath>
<clipPath id="clip1_6_40">
<rect width="62" height="62" fill="white"/>
</clipPath>
<clipPath id="clip2_6_40">
<rect width="62" height="62" fill="white"/>
</clipPath>
</defs>
</svg>
